<svg width="45" height="45" viewBox="0 0 45 45" fill="none" xmlns="http://www.w3.org/2000/svg">
<path fill-rule="evenodd" clip-rule="evenodd" d="M3 1H26.5C28.8868 1 32.3668 1.67901 35.3794 3.8481C38.6214 6.18238 41 10.0334 41 15.5C41 19.782 39.6482 23.1102 37.5296 25.5C39.6482 27.8898 41 31.218 41 35.5V43.5H32V35.5C32 32.7769 31.0529 31.6052 30.3139 31.0139C29.3792 30.2662 28.1769 30 27.5 30H12V43.5H3V1ZM12 21H27.5C28.1769 21 29.3792 20.7338 30.3139 19.9861C31.0529 19.3948 32 18.2231 32 15.5C32 12.9666 31.0452 11.8176 30.1206 11.1519C28.9666 10.321 27.4466 10 26.5 10H12V21Z" fill="black"/>
</svg>
