<svg width="177" height="49" viewBox="0 0 177 49" fill="none" xmlns="http://www.w3.org/2000/svg">
<path fill-rule="evenodd" clip-rule="evenodd" d="M0 0.5H23.5C25.8868 0.5 29.3668 1.17901 32.3794 3.3481C35.6214 5.68238 38 9.53336 38 15C38 19.282 36.6482 22.6102 34.5296 25C36.6482 27.3898 38 30.718 38 35V49H29V35C29 32.2769 28.0529 31.1052 27.3139 30.5139C26.3792 29.7662 25.1769 29.5 24.5 29.5H9V49H0V0.5ZM9 20.5H24.5C25.1769 20.5 26.3792 20.2338 27.3139 19.4861C28.0529 18.8948 29 17.7231 29 15C29 12.4666 28.0452 11.3176 27.1206 10.6519C25.9666 9.82099 24.4466 9.5 23.5 9.5H9V20.5Z" fill="black"/>
<path fill-rule="evenodd" clip-rule="evenodd" d="M138.5 0.5H162C164.387 0.5 167.867 1.17901 170.879 3.3481C174.121 5.68238 176.5 9.53336 176.5 15C176.5 19.282 175.148 22.6102 173.03 25C175.148 27.3898 176.5 30.718 176.5 35V49H167.5V35C167.5 32.2769 166.553 31.1052 165.814 30.5139C164.879 29.7662 163.677 29.5 163 29.5H147.5V49H138.5V0.5ZM147.5 20.5H163C163.677 20.5 164.879 20.2338 165.814 19.4861C166.553 18.8948 167.5 17.7231 167.5 15C167.5 12.4666 166.545 11.3176 165.621 10.6519C164.467 9.82099 162.947 9.5 162 9.5H147.5V20.5Z" fill="black"/>
<path fill-rule="evenodd" clip-rule="evenodd" d="M47.6206 2.8481C50.6332 0.679014 54.1132 0 56.5 0H66.5V9H56.5C55.5534 9 54.0334 9.32099 52.8794 10.1519C51.9548 10.8176 51 11.9666 51 14.5V20H66.5V29H51V34.5C51 35.4466 51.321 36.9666 52.1519 38.1206C52.8176 39.0452 53.9666 40 56.5 40H66.5V49H56.5C51.0334 49 47.1824 46.6214 44.8481 43.3794C42.679 40.3668 42 36.8868 42 34.5V14.5C42 9.03336 44.3786 5.18238 47.6206 2.8481ZM72 0H86.5C88.8868 0 92.3668 0.679014 95.3794 2.8481C98.6214 5.18238 101 9.03336 101 14.5C101 18.8311 99.507 22.148 97.2744 24.5C99.507 26.852 101 30.1689 101 34.5C101 39.9666 98.6214 43.8176 95.3794 46.1519C92.3668 48.321 88.8868 49 86.5 49H72V0ZM86.5 20C87.4466 20 88.9666 19.679 90.1206 18.8481C91.0452 18.1824 92 17.0334 92 14.5C92 11.9666 91.0452 10.8176 90.1206 10.1519C88.9666 9.32099 87.4466 9 86.5 9H81V20H86.5ZM81 29H86.5C87.4466 29 88.9666 29.321 90.1206 30.1519C91.0452 30.8176 92 31.9666 92 34.5C92 37.0334 91.0452 38.1824 90.1206 38.8481C88.9666 39.679 87.4466 40 86.5 40H81V29ZM116.152 10.8794C115.321 12.0334 115 13.5534 115 14.5V30H126V14.5C126 13.5534 125.679 12.0334 124.848 10.8794C124.182 9.95477 123.033 9 120.5 9C117.967 9 116.818 9.95477 116.152 10.8794ZM126 39V49H135V14.5C135 12.1132 134.321 8.63324 132.152 5.62063C129.818 2.37856 125.967 0 120.5 0C115.033 0 111.182 2.37856 108.848 5.62063C106.679 8.63324 106 12.1132 106 14.5V49H115V39H126Z" fill="black"/>
</svg>
